<?xml version="1.0" encoding="UTF-8" standalone="no"?>
<!-- Created with Inkscape (http://www.inkscape.org/) -->

<svg
   xmlns:dc="http://purl.org/dc/elements/1.1/"
   xmlns:cc="http://creativecommons.org/ns#"
   xmlns:rdf="http://www.w3.org/1999/02/22-rdf-syntax-ns#"
   xmlns:svg="http://www.w3.org/2000/svg"
   xmlns="http://www.w3.org/2000/svg"
   xmlns:sodipodi="http://sodipodi.sourceforge.net/DTD/sodipodi-0.dtd"
   xmlns:inkscape="http://www.inkscape.org/namespaces/inkscape"
   width="120.41587mm"
   height="177.1582mm"
   viewBox="0 0 120.41587 177.1582"
   version="1.1"
   id="svg8"
   inkscape:version="0.92.1 r15371"
   sodipodi:docname="Mapa_sp.svg">
  <defs
     id="defs2">
    <inkscape:perspective
       id="perspective10"
       inkscape:persp3d-origin="372.04724 : 350.78736 : 1"
       inkscape:vp_z="744.09448 : 526.18104 : 1"
       inkscape:vp_y="0 : 999.99991 : 0"
       inkscape:vp_x="0 : 526.18104 : 1"
       sodipodi:type="inkscape:persp3d" />
    <inkscape:perspective
       sodipodi:type="inkscape:persp3d"
       inkscape:vp_x="0 : 526.18104 : 1"
       inkscape:vp_y="0 : 999.99991 : 0"
       inkscape:vp_z="744.09448 : 526.18104 : 1"
       inkscape:persp3d-origin="372.04724 : 350.78736 : 1"
       id="perspective2390" />
    <inkscape:perspective
       sodipodi:type="inkscape:persp3d"
       inkscape:vp_x="0 : 526.18104 : 1"
       inkscape:vp_y="0 : 999.99991 : 0"
       inkscape:vp_z="744.09448 : 526.18104 : 1"
       inkscape:persp3d-origin="372.04724 : 350.78736 : 1"
       id="perspective2574" />
    <inkscape:perspective
       sodipodi:type="inkscape:persp3d"
       inkscape:vp_x="0 : 526.18104 : 1"
       inkscape:vp_y="0 : 999.99991 : 0"
       inkscape:vp_z="744.09448 : 526.18104 : 1"
       inkscape:persp3d-origin="372.04724 : 350.78736 : 1"
       id="perspective3487" />
    <inkscape:perspective
       sodipodi:type="inkscape:persp3d"
       inkscape:vp_x="0 : 526.18104 : 1"
       inkscape:vp_y="0 : 999.99991 : 0"
       inkscape:vp_z="744.09448 : 526.18104 : 1"
       inkscape:persp3d-origin="372.04724 : 350.78736 : 1"
       id="perspective3474" />
    <inkscape:perspective
       sodipodi:type="inkscape:persp3d"
       inkscape:vp_x="0 : 526.18104 : 1"
       inkscape:vp_y="0 : 999.99991 : 0"
       inkscape:vp_z="744.09448 : 526.18104 : 1"
       inkscape:persp3d-origin="372.04724 : 350.78736 : 1"
       id="perspective2676" />
  </defs>
  <sodipodi:namedview
     id="base"
     pagecolor="#ffffff"
     bordercolor="#666666"
     borderopacity="1.0"
     inkscape:pageopacity="0.0"
     inkscape:pageshadow="2"
     inkscape:zoom="0.98994949"
     inkscape:cx="154.98551"
     inkscape:cy="336.3562"
     inkscape:document-units="mm"
     inkscape:current-layer="layer1"
     showgrid="false"
     fit-margin-top="0"
     fit-margin-left="0"
     fit-margin-right="0"
     fit-margin-bottom="0"
     showguides="true"
     inkscape:guide-bbox="true"
     inkscape:window-width="1920"
     inkscape:window-height="1017"
     inkscape:window-x="-8"
     inkscape:window-y="-8"
     inkscape:window-maximized="1" />
  <metadata
     id="metadata5">
    <rdf:RDF>
      <cc:Work
         rdf:about="">
        <dc:format>image/svg+xml</dc:format>
        <dc:type
           rdf:resource="http://purl.org/dc/dcmitype/StillImage" />
        <dc:title />
      </cc:Work>
    </rdf:RDF>
  </metadata>
  <g
     inkscape:label="Layer 1"
     inkscape:groupmode="layer"
     id="layer1"
     transform="translate(-44.11321,-58.742709)">
    <path
       style="color:#000000;font-style:normal;font-variant:normal;font-weight:normal;font-stretch:normal;font-size:medium;line-height:normal;font-family:sans-serif;font-variant-ligatures:normal;font-variant-position:normal;font-variant-caps:normal;font-variant-numeric:normal;font-variant-alternates:normal;font-feature-settings:normal;text-indent:0;text-align:start;text-decoration:none;text-decoration-line:none;text-decoration-style:solid;text-decoration-color:#000000;letter-spacing:normal;word-spacing:normal;text-transform:none;writing-mode:lr-tb;direction:ltr;text-orientation:mixed;dominant-baseline:auto;baseline-shift:baseline;text-anchor:start;white-space:normal;shape-padding:0;clip-rule:nonzero;display:inline;overflow:visible;visibility:visible;opacity:1;isolation:auto;mix-blend-mode:normal;color-interpolation:sRGB;color-interpolation-filters:linearRGB;solid-color:#000000;solid-opacity:1;vector-effect:none;fill:#ececec;fill-opacity:1;fill-rule:nonzero;stroke:#ffffff;stroke-width:1.02810001;stroke-linecap:butt;stroke-linejoin:miter;stroke-miterlimit:1;stroke-dasharray:none;stroke-dashoffset:0;stroke-opacity:1;color-rendering:auto;image-rendering:auto;shape-rendering:auto;text-rendering:auto;enable-background:accumulate"
       d="m 269.63477,0 -0.58789,0.09960937 -2,2.00000003 -0.13672,0.2441406 -1.16602,4.8613281 -7.33203,7.4296879 -6.87109,3.095703 -5.12891,-0.855469 -3.99805,-2.925781 -0.6914,0.07617 -1.39844,1.599609 -0.0625,0.589844 1.31836,2.355468 -0.34766,3.13086 -3.09375,1.236328 -6.17187,-0.685547 -0.27149,0.04492 -8.5,3.898437 -0.28711,0.359376 -0.5,2.298828 0.20899,0.53125 2.16406,1.507812 0.76563,2.123047 -0.78516,1.396484 -0.0664,0.251953 v 4.041016 l -3.29101,2.445313 -0.14453,0.166015 -9.90039,18 -0.0605,0.195313 -0.47852,4.789062 -3.42187,2.806641 -1.77735,-1.353516 -0.5625,-0.03906 -1.36328,0.767578 -1.23047,-0.617188 0.45508,-3.740234 -0.0976,-0.367188 -2,-2.701171 -0.44532,-0.207032 -3.09961,0.201172 -0.4375,0.304688 -1.59961,3.599609 -0.0117,0.388672 1.14453,3.052734 -0.42774,1.796875 -6.66406,6.179688 -1.4043,0.175781 h -0.3789 l -1.75586,-1.478516 -0.22657,-0.109374 -2.40039,-0.5 -0.41992,0.0957 -3.86133,2.992187 h -1.73632 l -0.94922,-1.552734 -0.39258,-0.244141 -3.29883,-0.300781 -0.34375,0.0918 -1.66797,1.177734 -0.16601,0.08203 -0.0449,0.02734 -3.10157,1.972656 -1.86719,-0.568359 -2.40039,-4.609375 -0.16992,-0.189453 -5.53906,-3.693359 -0.84961,-3.113282 -0.3125,-0.345703 -3.40039,-1.300781 -0.3125,-0.01953 -2.63477,0.68164 -0.74804,-2.246093 -0.0957,-0.169922 -1.09961,-1.298828 -0.68359,-0.08984 -1.60156,1.099609 -3.98047,2.488281 -0.18555,0.201172 -2.16992,4.248047 -10.50586,0.964844 -2.29883,-0.828125 -1.70312,-1.513672 -0.006,-0.0059 -0.0176,-0.01563 -0.58008,-0.582032 -1.06445,-3.966796 -0.24609,-0.316407 -3.59961,-2 -0.34766,-0.05469 -2.59961,0.5 -0.004,0.0078 -0.0137,-0.0078 -1.51367,0.33789 -1.85937,-1.941406 v -3.394531 l -0.0527,-0.228516 -1.80078,-3.595703 -0.14062,-0.177734 -3.9043,-3.048828 v -6.746094 l -0.16992,-0.376953 -2.29688,-2.103516 -0.35351,-0.132812 -10.423832,0.0957 -2.390625,-1.763672 -0.671875,-5.181641 -0.11914,-0.273437 -2,-2.304688 -0.339844,-0.167968 -2.996094,-0.302735 -0.332031,0.08008 -1.802735,1.173828 -6.074218,-1.734375 -0.435547,0.06641 -2.111328,1.46875 -2.488282,-0.597657 -1.689453,-2.347656 -0.326172,-0.199219 -2.597656,-0.501953 -0.302734,0.03711 -3.50586,1.55664 -7.197265,0.191406 -0.429688,0.251954 -2.90039,4.798828 -0.07422,0.316406 0.488281,4.673828 -1.492187,3.638672 -4.560547,3.041016 -3.478516,0.384765 -0.419922,0.316407 -1.048828,2.583984 -2.058594,1.697266 H 36.540925 L 33.99405,46.822217 33.609284,46.652295 h -2.597656 l -0.332031,0.117187 -4.039063,3.38086 -1.179687,-0.582032 0.457031,-3.74414 -0.04492,-0.271485 -2.597656,-5.699218 -0.294922,-0.273438 -2,-0.701172 -0.355469,0.0078 -1.800781,0.701172 -0.310547,0.339843 L 17,45.322266 15.191406,45.722656 9.8691406,42.621094 9.5527344,42.554688 2.953125,43.248047 2.5996094,43.455078 0.09570312,46.859375 0,47.228516 0.90039062,54.128906 1.1367188,54.498047 5.6621094,57.347656 7.2265625,59.349609 6.296875,61.798828 2.0742188,64.005859 1.8378906,64.25 l -0.9003906,2 -0.0371094,0.296875 0.9003906,5.298828 0.1621094,0.294922 7.9355469,7.242187 1.9199215,3.654297 1.085938,5.035157 0.08008,0.183593 2.679687,3.919922 L 15,95.875 l 0.02148,0.25 7.199219,22.09375 0.486328,0.35547 h 4.804688 l 0.443359,-0.25977 5.212891,-9.18164 6.332031,4.8418 0.546875,0.0449 6.724609,-3.45508 0.671875,1.41797 0.08594,0.0391 -0.07813,0.17188 0.228516,0.45703 -0.265626,1.93945 -1.845703,3.11133 -0.06641,0.33789 0.300781,2 0.144532,0.28711 0.699218,0.70117 0.238282,0.13477 4.230468,1.05664 1.3125,1.66406 0.271485,1.44336 0.296875,4.96875 0.08594,0.25391 1.121094,1.68164 0.09375,1.95703 0.06836,0.23242 2.638672,4.5957 0.19336,2.98047 0.138672,0.32032 1.599609,1.69921 0.357422,0.16211 2.746093,0.0937 1.574219,1.11133 0.400391,0.084 2.90039,-0.59961 0.160157,-0.0625 1.128906,-0.67774 1.525391,1.76367 0.474609,2.75977 0.03516,0.11719 3.199219,7.40039 0.248047,0.25781 3.300781,1.59961 0.191406,0.0508 15.962891,0.99219 5.167969,3.44531 1.138672,2.3711 0.960937,-0.34766 0.004,0.0117 2.21289,-1.02149 0.20508,-0.16796 3.26367,-4.60743 13.54297,-1.25976 0.16406,0.18554 6.03906,0.0977 4.94141,1.28516 0.20703,0.01 4.42774,-0.67578 12.35351,6.52344 0.24024,0.0586 h 5.40039 l 3.10742,1.26367 0.11719,0.0293 14.14062,2.08985 0.57227,0.1914 0.16211,0.0254 h 9.22461 l 3.92773,1.17774 0.12891,0.0234 5.1621,0.19727 3.16211,0.59375 0.27149,-0.0234 1.98633,-0.72265 1.89843,0.99414 0.38282,0.0391 6.03515,-1.75391 4.89453,1.72656 4.55274,2.86915 0.20508,0.0762 4.44531,0.59179 5.3457,1.94336 2.22266,2.12696 0.22656,0.0234 0.0684,0.13672 0.10547,0.14258 2.09961,2 0.23047,0.125 3.19922,0.80078 0.22851,0.004 5.80078,-1.19922 0.19141,-0.082 2.86719,-2.00781 h 5.73633 l 0.15429,-0.0234 4.44336,-1.38281 4.04102,-0.29493 0.18164,-0.0488 5.58593,-2.64453 4.23243,0.1875 1.88281,1.2246 0.73633,-0.19531 1.69922,-3.30078 0.0547,-0.17578 0.59961,-5.20117 -0.0234,-0.2168 -0.96094,-2.97852 0.67773,-3.97656 -0.50586,-0.59961 h -1.4707 l -2.24609,-2.51757 -0.27539,-1.6543 -0.082,-0.20313 -1.61132,-2.36914 v -2.58008 l 0.18554,-0.22656 1.89649,-7.00586 -0.008,-0.29492 -0.88477,-2.65039 -0.5918,-4.75391 -0.17578,-0.26953 0.0723,-0.0469 -0.47657,-2.85742 1.44727,-3.56641 0.0293,-0.27734 -0.59961,-3.59961 -0.0625,-0.17188 -9.40625,-16.33984 1.54101,-9.251956 2.87891,-2.783203 0.1543,-0.324219 0.19922,-2.300781 -0.0469,-0.261719 -1.4082,-3.007812 2.42578,-6.699219 0.002,-0.345703 -0.69922,-2 -0.10937,-0.179687 -2.66211,-2.851563 v -2.804687 l 0.10937,-0.0039 2.59961,-3.798828 0.0918,-0.291015 v -3.199219 l -0.10742,-0.3125 -3.11328,-4.058594 1.3164,-2.984375 10.57422,-7.015625 0.21289,-0.55664 -1.39844,-5.5 -0.2207,-0.304688 -2.73047,-1.761719 0.83985,-1.908203 2.00781,-0.822266 0.17383,-0.11914 5.65625,-5.84961 5.99023,-0.193359 0.36914,-0.173828 3,-3.400391 0.10742,-0.490234 -2.95507,-9.652344 1.17578,-3.978515 4.72656,-1.324219 0.35351,-0.628906 -2.5996,-9.5000004 -0.26954,-0.328125 z"
       transform="matrix(0.26458333,0,0,0.26458333,44.11321,58.742709)"
       id="path6167"
       inkscape:connector-curvature="0" />
    <path
       style="color:#000000;font-style:normal;font-variant:normal;font-weight:normal;font-stretch:normal;font-size:medium;line-height:normal;font-family:sans-serif;font-variant-ligatures:normal;font-variant-position:normal;font-variant-caps:normal;font-variant-numeric:normal;font-variant-alternates:normal;font-feature-settings:normal;text-indent:0;text-align:start;text-decoration:none;text-decoration-line:none;text-decoration-style:solid;text-decoration-color:#000000;letter-spacing:normal;word-spacing:normal;text-transform:none;writing-mode:lr-tb;direction:ltr;text-orientation:mixed;dominant-baseline:auto;baseline-shift:baseline;text-anchor:start;white-space:normal;shape-padding:0;clip-rule:nonzero;display:inline;overflow:visible;visibility:visible;opacity:1;isolation:auto;mix-blend-mode:normal;color-interpolation:sRGB;color-interpolation-filters:linearRGB;solid-color:#000000;solid-opacity:1;vector-effect:none;fill:#ececec;fill-opacity:1;fill-rule:nonzero;stroke:#ffffff;stroke-width:1.02810001;stroke-linecap:butt;stroke-linejoin:miter;stroke-miterlimit:1;stroke-dasharray:none;stroke-dashoffset:0;stroke-opacity:1;color-rendering:auto;image-rendering:auto;shape-rendering:auto;text-rendering:auto;enable-background:accumulate"
       d="m 392.73438,119.94922 -0.42383,0.18945 -2.9043,3.58399 -4.6582,1.55273 -0.19532,0.11914 -3.20117,3.09961 -0.20312,0.008 -0.73047,0.72266 -6.9375,2.93164 -8.56445,0.88477 -2.85157,-0.34375 -0.006,-0.0234 -8.59961,-2.60742 -0.17968,0.20507 -0.23828,-0.20507 -10.70118,-2.80079 -0.1914,-0.0117 -5.73047,0.6914 -9.73047,-1.49023 -0.0195,0.0137 -0.0156,-0.0195 -6,-0.49805 -0.1582,0.0117 -10.40039,2.40039 -0.11328,0.041 -3,1.5 -0.18359,0.15429 -2.40821,3.27539 -2.80859,1.0293 -4.25196,0.69336 -0.29101,0.15234 -3.64844,3.84571 -11.43359,6.5625 -0.15625,0.13672 -5.46289,7.25195 -3.9375,3.24805 -3.80078,2.90039 -0.19336,0.31836 -0.69922,3.90039 0.0137,0.24804 0.9668,2.99414 -0.57617,4.89454 -1.39844,2.71484 -1.52344,-0.99023 -0.25586,-0.082 -4.49805,-0.20312 -0.24414,0.0488 -5.61328,2.66015 -4.0039,0.29297 -0.11524,0.0215 -4.42578,1.37695 h -5.82031 l -0.3086,0.10156 -2.55273,1.91602 -5.63867,1.16992 -3.05664,-0.65039 -2.0293,-1.83789 -0.15625,-0.31641 -0.125,-0.16211 -2.50195,-2.10547 -0.15625,-0.0879 -5.39649,-1.99218 -0.13867,-0.0391 -1.29883,-0.0937 -0.52539,0.67774 1.69727,4.91015 -1.73438,1.91211 -2.8125,1.45313 -0.17578,0.14844 -2.00195,2.70117 0.14062,0.74609 2.47266,1.51953 2.09766,4.38477 0.39062,3.31445 0.18359,0.33985 2.95313,2.37695 -5.17383,2.32617 -3.23437,0.49414 -0.41993,0.38477 -0.49414,2 0.043,0.36914 5.10157,9.10156 0.0879,0.11133 1.89843,1.90429 0.86328,3.36524 0.0586,0.14062 4.65039,7.61133 0.7832,4.50196 0.0371,0.12695 3.20703,7.28906 -0.15429,0.29688 15.89843,22.5 0.9336,-0.24805 0.24414,-2.69336 3.84765,1.02734 6.0918,3.43946 4.25781,3.86132 0.10938,0.0723 5,2.60156 0.11133,0.043 2,0.5 0.3125,-0.0195 2.30078,-0.90039 0.13086,-0.0762 4.33008,-3.44336 0.45117,-0.15039 0.0996,0.0664 1.70703,-0.7207 1.52343,0.59375 2.9336,2.54102 0.13672,0.0859 4.91211,2.0625 2.92968,2.83204 0.39258,0.14453 7.42774,-0.4961 6.39843,1.37891 2.75977,3.04687 0.28711,0.16211 3.01172,0.56055 5.97851,7.25781 0.33985,0.1836 3.30078,0.39843 0.36133,-0.0957 2.52343,-1.8457 2.98243,-0.83399 5.375,1.26953 h 0.2207 l 5.08008,-1.07031 4.37695,1.26172 0.10547,-0.0918 2.43164,1.02735 3.04102,3.32617 2.26757,8.18164 0.17188,0.26172 3.69922,3 0.34179,0.11523 5.6543,-0.19531 6.37305,3.62891 0.38476,0.0508 2.63672,-0.6836 h 2.00782 l 4.88867,2.54102 0.22656,0.0586 5.30078,0.0996 0.30078,-0.0898 3.65821,-2.50391 4.73046,0.19336 0.21094,-0.0351 2.5,-1 0.16016,-0.10157 1.5,-1.40039 0.16211,-0.41015 -0.16993,-2.56055 1.18946,-0.26367 0.91601,0.45898 0.88672,1.33203 0.95117,2.75586 v 3.01367 l 0.0859,0.28516 1,1.5 0.51172,0.2207 1.80078,-0.29882 0.27149,-0.13672 2.75976,-2.66602 2.10547,-0.0918 0.25391,-0.0801 2.20117,-1.39844 0.16601,-0.17383 2.55469,-4.32226 5.33203,-4.44336 0.18555,-0.38086 0.0996,-3.80078 -0.043,-0.21875 -0.89258,-2.05079 1.2168,-1.94531 3.13476,-0.18555 0.41797,-0.25976 3.47657,-6.16211 4.07226,-4.96484 0.11719,-0.32618 v -3.90039 l -0.17188,-0.38281 -2.70117,-2.41211 -0.59961,-1.71094 0.8711,-2.69921 2.29687,-0.84961 2.82813,0.94336 0.42578,-0.0469 3.58594,-2.13281 2.96679,-0.0957 0.33985,-0.14257 2.5,-2.40039 0.15234,-0.44141 -0.47461,-3.41797 1.90625,-3.14453 0.0723,-0.23047 0.1875,-2.7207 0.87109,-0.94141 1.30469,0.32617 0.38867,-0.0586 1,-0.59961 0.24609,-0.38672 0.20118,-1.90039 -0.0996,-0.36328 -1.09766,-1.46289 v -1.32813 l -0.14063,-0.35351 -3.33203,-3.52344 0.33203,-2.57617 2.54297,-1.17969 0.29102,-0.38281 0.29883,-1.80078 -0.0918,-0.38672 -1.09961,-1.5 -0.2793,-0.19336 -2.66797,-0.73437 -0.83203,-1.83204 0.46875,-2.43945 -0.38281,-0.46484 0.35547,-1.31836 2.25195,-3.33008 -0.0879,-0.67969 -2.30468,-1.99219 -0.31641,-0.13281 -2.53906,-0.0957 -2.8418,-0.75391 -1.55078,-1.27734 -5.21289,-8.15625 0.33984,-0.29492 1.35156,-0.99024 h 3.13086 l 0.26563,-0.0723 1.69726,-0.99805 0.25,-0.4707 -0.29492,-5.00586 -0.10351,-0.28125 -3.38086,-4.47266 -2.01368,-3.54297 0.0957,-2.45117 -0.0449,-0.22852 -1.23243,-2.73828 0.8418,-0.67187 1.17383,1.0918 0.53125,0.10351 1.80078,-0.69336 0.20703,-0.14844 3.29883,-3.88281 2.34766,-0.65625 0.34765,-0.31836 1.29883,-3.49804 -0.002,-0.004 0.19336,-0.084 1.15234,-2.88281 3.78125,-3.21289 1.83984,-0.18554 0.17969,-0.0488 2,-1 0.24024,-0.25391 0.92382,-2.125 2.2168,-1.06445 4.17578,0.0957 0.51953,-0.43164 0.90039,-5.60156 -0.008,-0.20117 -0.90039,-3.69922 -0.0859,-0.1875 -3.19726,-4.26172 v -1.22852 l -0.0742,-0.26758 -7.4707,-12.3496 -1.18164,-3.54688 -0.26758,-0.80078 0.19336,-2.59766 -0.0547,-0.27344 -2,-3.89843 -0.40234,-0.27735 -3.70118,-0.40039 -0.31836,0.0703 -2,1.20117 -0.14843,0.13086 -2.82422,3.76953 -2.71289,-0.27149 -0.34571,0.0898 -3.57031,2.50976 -6.2793,0.0957 -1.9082,-1.30274 -0.95312,-3.51562 -0.22266,-0.30274 -3.125,-1.95312 -1.94531,-2.43164 -0.18164,-0.14258 -2.09961,-1 -0.36328,-0.0293 -5.05078,1.45703 -4.65235,-1.45507 -0.13086,-0.0215 z"
       id="path6159"
       transform="matrix(0.26458333,0,0,0.26458333,44.11321,58.742709)"
       inkscape:connector-curvature="0" />
    <path
       style="color:#000000;font-style:normal;font-variant:normal;font-weight:normal;font-stretch:normal;font-size:medium;line-height:normal;font-family:sans-serif;font-variant-ligatures:normal;font-variant-position:normal;font-variant-caps:normal;font-variant-numeric:normal;font-variant-alternates:normal;font-feature-settings:normal;text-indent:0;text-align:start;text-decoration:none;text-decoration-line:none;text-decoration-style:solid;text-decoration-color:#000000;letter-spacing:normal;word-spacing:normal;text-transform:none;writing-mode:lr-tb;direction:ltr;text-orientation:mixed;dominant-baseline:auto;baseline-shift:baseline;text-anchor:start;white-space:normal;shape-padding:0;clip-rule:nonzero;display:inline;overflow:visible;visibility:visible;opacity:1;isolation:auto;mix-blend-mode:normal;color-interpolation:sRGB;color-interpolation-filters:linearRGB;solid-color:#000000;solid-opacity:1;vector-effect:none;fill:#ececec;fill-opacity:1;fill-rule:nonzero;stroke:#ffffff;stroke-width:1.02810001;stroke-linecap:butt;stroke-linejoin:miter;stroke-miterlimit:1;stroke-dasharray:none;stroke-dashoffset:0;stroke-opacity:1;color-rendering:auto;image-rendering:auto;shape-rendering:auto;text-rendering:auto;enable-background:accumulate"
       d="m 202.28125,205.44922 -3.59961,0.20117 -0.42969,0.27734 -1.89843,3.70118 -0.041,0.36718 1.20117,4.5 0.0899,0.17774 1.93945,2.52148 1.33594,4.77539 -2.52344,10.28321 -2.17383,1.5664 -3.93945,-0.62695 -1.37891,-2.57422 -0.25195,-0.23047 -8.44922,-3.57812 -7.1543,-5.06836 -0.69336,0.0918 -3.79687,4.59571 -0.0703,-0.0293 -0.37696,0.37695 -3.97461,3.08008 -0.0762,0.0723 -2.93555,3.42187 -7.9121,4.15625 -0.24219,0.26953 -4,10.40039 -0.0332,0.21094 0.29493,5.58789 -8.20703,20.76172 -2.78516,2.11328 -0.16016,0.20703 -1.77929,4.09375 -3.67969,0.76954 -3.40039,-1.70118 -7.44141,-5.45508 -1.47656,-1.3789 -0.41016,-0.13477 -2.50586,0.28907 -2.94726,-0.75977 -9.24414,-4.9707 -0.25391,-0.0605 -5.4043,0.0977 -4.611324,-1.66797 -0.634766,0.2539 -0.744141,1.49024 -6.808593,5.05664 -2.732422,0.5293 -2.107422,-1.92579 -0.457031,-0.12304 -2.134766,0.46484 -1.646484,-0.73242 -0.378907,-0.0156 -2,0.70118 -0.158203,0.0898 -2.201172,1.83594 -1.175781,-4.27735 -0.07422,-0.16015 -2.40039,-3.40039 -0.769531,-0.082 -1.181641,1.09179 -3.439453,0.47852 -0.314453,0.16601 -3.199219,3.60157 -0.08008,0.11914 -1.970703,4.13672 -3.953125,4.54687 -0.04492,0.0605 -2.615235,4.06836 -5.357421,2.33789 -0.210938,0.16797 -1.599609,2.20117 -0.08789,0.20117 -0.660156,3.30273 -1.486328,1.07227 -2.814454,-0.1875 -0.33789,0.0977 -1.09961,0.80078 -0.189453,0.26367 -0.318359,1.03711 -1.738281,0.52148 -0.279297,0.20703 -0.59961,0.90039 -0.08594,0.25391 -0.08398,1.35938 -2.779297,2.03711 -2.369141,1.2832 -0.228515,0.25195 -0.798829,1.90039 -0.0293,0.31055 0.341797,1.53516 -0.03711,0.0781 0.273438,1.10742 -0.472657,3.61719 -1.166015,2.31836 -0.05273,0.22852 v 2.5332 l -1.490234,1.95508 -0.103516,0.37695 0.28711,2.38477 -0.767579,2.2871 -0.0078,0.30274 0.783203,2.82812 -0.0957,3.20313 -1.482422,2.92773 -0.267578,0.17188 -2.302734,4.59961 -0.05273,0.23633 v 4.28125 l -2.353515,5.10156 -0.03711,0.30859 1.779297,9.38281 -1.269531,4.58399 0.279297,0.60547 7.396484,3.40234 1.433594,4.58594 0.193359,0.082 -0.09766,0.11719 -0.804688,2.70117 -0.01562,0.14062 -0.103516,8.99805 0.0078,0.082 0.494141,3.39453 0.03125,0.10352 2.066406,5.71484 v 2.44336 l -1.396484,1.85938 -0.101563,0.28906 -0.08984,2.14648 -0.855469,0.28907 -0.355469,0.47265 -0.199219,7.5 0.376954,0.50977 2.392578,0.64062 0.958984,1.74219 0.384766,1.82422 0.146484,0.26563 2.496094,2.39843 0.08008,0.0664 3.300781,2.09766 0.390625,0.0664 8.695313,-2.03125 2.097656,2.4668 0.05469,0.0195 1.169922,4.59766 -4.701172,4.98046 -5.71289,-1.33398 -0.257813,0.008 -8.5,2.40039 -0.326172,0.2793 -1.701171,3.70117 0.0293,0.48047 2.876954,4.73633 -1.580079,1.41406 -0.171875,0.38281 v 4.09961 l 0.185547,0.39649 2.751953,2.27734 0.408204,2.44531 -6.671876,3.52735 -0.164062,0.13672 -4,5.09961 -0.109375,0.2832 -0.400391,5.79883 0.136719,0.38476 3.800781,4.10156 0.234375,0.14454 11.453125,3.28515 9.28125,4.68946 3.628907,9.3164 0.269531,0.28321 4.335937,1.92773 2.806641,5.42578 -2.402344,5.69336 -3.322265,-1.48437 -0.101563,-0.0332 -6.884766,-1.47461 -4.308593,-3.32812 -0.798828,0.23437 -1.5,4.30078 0.08594,0.49414 5.109375,6.28907 1.972656,13.90039 -1.292968,15.71093 -2.835938,13.59376 -6.712891,2.55273 -7.457031,-1.06445 -3.996093,-2.57032 -2.138672,-3.88476 -0.611328,-0.24024 -3.900391,1.30078 -0.347656,0.55665 0.77539,5.62304 -5.107422,8.64649 -0.06641,0.33398 2.783203,19.18945 -3.767578,12.79297 0.04102,0.39258 2.800781,5.09961 0.46875,0.26563 10.722656,-0.39258 3.556641,2.59375 0.251953,0.0976 6.804687,0.67969 13.824219,15.10742 5.769531,10.74414 0.09375,0.125 6.591797,6.39453 1.335938,5.82032 -1.726563,5.84765 -5.509765,5.60938 -0.136719,0.26172 -0.978516,4.99023 -3.835937,5.41016 -0.0957,0.28515 -0.199219,7.70118 0.394531,0.51171 4.59961,1.09961 0.630859,-0.4414 0.587891,-5.38867 1.841796,-3.04102 6.078126,-1.99414 22.855468,5.76562 0.113282,0.0137 14.101564,0.30078 0.44727,-0.24414 2.87109,-4.65235 2.85156,-2.94726 3.11328,-0.64063 4.27149,1.35938 0.15625,0.0234 h 7.09961 l 0.29883,-0.0957 7.96679,-5.70312 h 5.5625 l 1.88281,5.74609 0.33204,0.32813 5.89843,1.90039 0.32227,-0.002 9.32031,-3.13867 1.03125,2.92188 0.2168,0.26953 4.95312,3.00976 2.73633,6.93946 0.2832,0.28711 5.09961,2.09961 0.26758,0.0332 7,-1 0.41406,-0.34375 2.03907,-6.01953 3.18945,-1.875 8.84961,-2.98438 0.33594,-0.37304 1,-4.39844 -0.10547,-0.44336 -3.29883,-3.97852 -0.66016,-6.6914 4.73243,-4.45508 4.15039,0.66211 0.27929,-0.0332 3.10157,-1.29882 0.2832,-0.29688 2.33008,-6.31054 5.12109,-2.60938 0.23438,-0.24609 5.19921,-11.5 0.0449,-0.26172 -0.80078,-8.19922 -0.16602,-0.33203 -4.31641,-3.92383 -2.47461,-5.80273 3.52344,-9.00391 0.0293,-0.10547 2,-12.19922 0.002,-0.1543 -2.80078,-20.39843 -0.2793,-0.39063 0.041,0.0234 -4.23633,-29.96094 1.61328,-2.84765 0.043,-0.41016 -1.5,-4.69922 -0.18359,-0.25586 -10.00391,-7.42969 -5.62305,-10.85742 1.27735,-2.46484 v -0.46875 l -2.50781,-4.92188 3.3457,-12.10742 -0.006,-0.008 0.006,-0.004 4.16015,-15.05078 2.98243,-2.59765 0.14648,-0.2129 1.79883,-5 0.006,-0.33203 -1.07813,-3.33593 -0.29687,-5.73243 -0.0742,-0.24218 -8.45899,-13.83203 -0.98046,-4.02149 -0.11524,-0.21875 -7.31054,-8.28516 0.51757,-1.72656 -0.0215,-0.35742 -1.20117,-2.69922 -0.44532,-0.30469 -4.07226,-0.18554 -0.53711,-1.30274 v -1.39843 l -0.0664,-0.25196 -5.95508,-10.62109 -0.25976,-1.55664 0.9082,-1.9961 1.22071,-1.48242 4.78906,-0.47851 0.14453,-0.0332 3.89844,-1.60156 0.10351,-0.0547 5.5,-3.90039 0.0625,-0.0527 6.17578,-6.07617 3.40821,-2.53125 4.52539,-1.57422 0.18164,-0.11133 5,-4.69922 0.16015,-0.32812 0.20118,-2.19922 -0.13477,-0.39649 -1.19922,-1.29883 -0.17187,-0.12304 -4.65625,-2.03711 -1.81641,-2.86719 -0.19726,-0.18359 -2.82227,-1.45899 -1.35938,-1.44922 -0.86328,-2.78711 -0.1289,-0.21093 -2.36328,-2.36328 -0.0859,-1.3086 -0.15039,-0.32812 -1.32813,-1.32813 -0.74804,-1.77344 -0.15039,-0.60546 1.34765,-3.75391 0.0293,-0.17383 v -2.16992 l 3.53906,-6.58594 0.0449,-0.37304 -0.58008,-2.22461 0.0879,-1.95899 1.30079,-1.67187 0.002,-0.0332 h 0.0195 l 0.80078,-1.19922 0.0664,-0.14453 0.79883,-2.79883 0.0195,-0.10351 0.29297,-4.00586 0.75195,-1.58594 1.95508,-0.44531 0.23047,-0.11914 3.85351,-3.46875 h 1.80274 l 0.0254,-0.0137 1.11133,2.22851 0.71484,0.22266 5.99414,-3.43945 2.47461,-0.0977 0.30273,-0.10938 4.75977,-3.79492 2.83594,-0.0957 0.27929,-0.0957 4.03907,-2.95313 3.72656,-1.27734 0.15625,-0.082 5.80078,-4.59766 0.12695,-0.16211 1.20313,-2.20117 0.0508,-0.13281 0.79687,-3.60157 -0.0508,-0.35546 -1.42578,-2.56836 0.18555,-2.54688 2.14844,-4.20703 0.0508,-0.28906 -0.48633,-4.51758 1.7793,-8.62109 0.0137,-0.10352 v -4.90234 l -0.10156,-0.10157 v -3.53711 l 0.78906,-3.34375 0.008,-0.0508 0.39844,-3.10156 -0.0879,-0.36133 -13.97461,-19.26758 -5.04883,-10.6875 -0.79102,-4.4375 -0.0879,-0.20703 -1.89648,-2.69336 -0.1875,-0.16406 -2.6543,-4.74219 -0.98437,-3.44336 -0.13086,-0.22265 -1.94141,-1.93945 -1.96289,-3.92579 -0.38672,-0.27929 -3.5,-0.5 -0.11133,-0.004 -3.8457,0.28906 -3.46484,-1.92578 z"
       transform="matrix(0.26458333,0,0,0.26458333,44.11321,58.742709)"
       id="path6153"
       inkscape:connector-curvature="0" />
    <path
       style="color:#000000;font-style:normal;font-variant:normal;font-weight:normal;font-stretch:normal;font-size:medium;line-height:normal;font-family:sans-serif;font-variant-ligatures:normal;font-variant-position:normal;font-variant-caps:normal;font-variant-numeric:normal;font-variant-alternates:normal;font-feature-settings:normal;text-indent:0;text-align:start;text-decoration:none;text-decoration-line:none;text-decoration-style:solid;text-decoration-color:#000000;letter-spacing:normal;word-spacing:normal;text-transform:none;writing-mode:lr-tb;direction:ltr;text-orientation:mixed;dominant-baseline:auto;baseline-shift:baseline;text-anchor:start;white-space:normal;shape-padding:0;clip-rule:nonzero;display:inline;overflow:visible;visibility:visible;opacity:1;isolation:auto;mix-blend-mode:normal;color-interpolation:sRGB;color-interpolation-filters:linearRGB;solid-color:#000000;solid-opacity:1;vector-effect:none;fill:#ececec;fill-opacity:1;fill-rule:nonzero;stroke:#ffffff;stroke-width:1.02810001;stroke-linecap:butt;stroke-linejoin:miter;stroke-miterlimit:1;stroke-dasharray:none;stroke-dashoffset:0;stroke-opacity:1;color-rendering:auto;image-rendering:auto;shape-rendering:auto;text-rendering:auto;enable-background:accumulate"
       d="m 68.025391,143.03516 -1.5,1 -0.228516,0.45703 0.09961,1.79883 0.05469,0.20312 0.716797,1.43359 -0.205078,0.89063 -3.791016,1.99023 -0.189453,0.16993 -3,4.5 -0.08594,0.28515 v 1.79883 l 0.160157,0.37305 1.880859,1.78906 0.46875,2.33984 0.150391,0.27149 3.710937,3.51562 0.458984,1.28516 0.136719,0.20508 1.199219,1.09961 0.322266,0.13476 1.773437,0.0899 2.755859,3.32617 0.275391,0.17187 2.328125,0.55664 1.160156,1.47266 -0.800781,1.23828 -2.134765,0.71289 -3.15625,-0.18555 -3.279297,-2.3164 -0.220703,-0.0879 -2,-0.29883 -0.486329,0.19922 -1.5,2 -0.06836,0.49609 0.814453,2.07813 -1.388672,2.59179 -0.06055,0.24219 v 2.5 l 0.07227,0.26367 0.814453,1.35743 -0.285156,3.23437 0.05664,0.2832 0.935546,1.77735 -0.08984,2.1582 -0.955079,2.00391 -0.04883,0.24023 0.09961,2.70117 0.05273,0.20508 1.798828,3.70117 0.002,0.004 0.04687,0.0918 v 0.0957 l -0.673828,2.01953 0.01172,0.35938 0.630859,1.52929 -0.916015,3.02539 -3.433594,4.1211 -0.09766,0.17968 -0.527344,1.75586 -2.083984,0.78321 -2.417969,0.0957 -0.314453,0.125 -3,2.59961 -0.173828,0.32812 -0.38086,3.22461 -0.927734,0.92774 -3.794922,0.0937 -0.253906,0.0762 -1.800781,1.09961 -0.177735,0.18164 -1.396484,2.42187 -2.503907,0.74219 -0.171874,0.0899 -3.677735,2.90429 -2.345703,0.1875 -0.253906,0.0898 -2,1.40039 -0.0918,0.082 -1.996094,2.28125 -2.482422,0.64453 h -4.933593 l -0.150391,0.0234 -2.300781,0.70117 -0.257813,0.17773 -1.601562,2.09961 -0.0957,0.22071 -0.400391,2.19921 0.0039,0.20704 0.482422,2.12109 -0.177734,1.86328 -1.601563,1.97852 -0.115234,0.29882 -0.09961,2.09961 0.08594,0.31055 0.685547,1.0293 -0.253907,1.4414 -0.679687,1.64844 -0.03516,0.24414 0.199219,2.09961 0.06445,0.20508 2.029297,3.57812 -0.0957,4.35743 0.410157,0.51562 2.898437,0.59961 0.189453,0.004 3.59961,-0.60157 0.259765,-0.125 2,-1.79882 0.03906,-0.0391 0.736328,-0.81836 1.839844,0.084 1.197265,0.64453 0.542969,-0.0352 1.183594,-0.8457 2.949219,1.01367 0.296874,0.0117 3.5,-0.90039 0.320313,-0.24805 0.859375,-1.54492 2.808594,-0.0918 0.28125,-0.0937 2.673828,-1.91016 3.242187,-0.0957 0.25586,-0.0762 1.958984,-1.21289 4.236328,0.28907 0.158203,-0.0156 2.800782,-0.70117 0.222656,-0.11914 3.322266,-3.0293 1.46875,-0.51367 0.103515,0.20703 1.019531,0.5957 0.44336,1.59766 0.253906,0.31641 3,1.59961 0.242188,0.0605 h 1.972656 l 1.699218,1.86328 -1.023437,1.87696 -0.03516,0.0762 -2,5.69922 0.06641,0.46679 2.34375,3.32032 1.175781,4.80664 0.794922,0.29883 2.941406,-2.06055 1.740235,-0.60938 1.615234,0.71875 0.318359,0.0312 2.046876,-0.44531 2.105468,1.83203 0.419922,0.11914 3.09961,-0.5 0.224609,-0.0957 7,-5.19922 0.164062,-0.20703 0.517579,-1.19141 4.335946,1.57032 0.18554,0.0293 5.36524,-0.0977 9.18164,4.9375 0.11523,0.0449 3.09961,0.79883 0.1875,0.0156 2.36328,-0.27344 1.32617,1.23829 0.008,-0.002 0.14843,0.34571 7.40039,5.19921 0.0645,0.0391 3.59961,1.80078 0.30664,0.0469 4,-0.59961 0.39648,-0.30273 1.94531,-4.47656 2.79297,-2.11914 0.16797,-0.22071 8.29883,-21 0.0352,-0.21484 -0.29297,-5.59375 3.99219,-10.61524 7.7246,-4.00781 0.14454,-0.11133 2.96289,-3.25976 3.95703,-2.86914 0.0898,-0.082 4.29883,-5 -0.10352,-0.76172 -3.19336,-2.12891 -2.53906,-4.78515 -0.14648,-0.17188 -3.10157,-2.30078 -0.0703,-0.043 -3.90039,-2 -0.25195,-0.0566 -2.73242,0.0937 -2.96289,-2.00586 -0.10743,-0.0566 -3.92968,-1.47266 -2.83985,-2.15429 -0.125,-0.002 -0.0293,-0.18164 -4.10157,-1.29882 -0.19336,-0.0234 -2.44726,0.18945 -8.72852,-4.80664 -2.31836,-1.83594 -2.66796,-3.40039 0.5664,-1.21484 0.0488,-0.2168 v -3.86719 l 2.00391,-3.64453 2.02539,-0.17578 0.36328,-0.19726 3.09961,-4 0.0684,-0.1211 0.86523,-2.11133 1.30273,-1.39062 0.8086,-0.0801 0.38476,-0.78516 -2.48046,-3.96679 -5.78516,-13.26563 -0.57227,-0.29883 -0.38281,0.0762 -4.88672,-1.26954 -0.12109,-0.0156 -12,-0.20117 -0.084,0.008 -8.0996,1.19922 -0.34376,0.21289 -3.3125,4.67578 -2.261718,0.9043 -0.628906,-1.57422 -0.191406,-0.23633 -5.400391,-3.60156 -0.253906,-0.084 -15.998047,-0.99414 -3.037109,-1.47265 -3.09961,-7.16797 -0.490234,-2.83985 -0.117188,-0.24804 -1.90039,-2.20117 z"
       transform="matrix(0.26458333,0,0,0.26458333,44.11321,58.742709)"
       id="path6093"
       inkscape:connector-curvature="0" />
    <path
       style="color:#000000;font-style:normal;font-variant:normal;font-weight:normal;font-stretch:normal;font-size:medium;line-height:normal;font-family:sans-serif;font-variant-ligatures:normal;font-variant-position:normal;font-variant-caps:normal;font-variant-numeric:normal;font-variant-alternates:normal;font-feature-settings:normal;text-indent:0;text-align:start;text-decoration:none;text-decoration-line:none;text-decoration-style:solid;text-decoration-color:#000000;letter-spacing:normal;word-spacing:normal;text-transform:none;writing-mode:lr-tb;direction:ltr;text-orientation:mixed;dominant-baseline:auto;baseline-shift:baseline;text-anchor:start;white-space:normal;shape-padding:0;clip-rule:nonzero;display:inline;overflow:visible;visibility:visible;opacity:1;isolation:auto;mix-blend-mode:normal;color-interpolation:sRGB;color-interpolation-filters:linearRGB;solid-color:#000000;solid-opacity:1;vector-effect:none;fill:#ececec;fill-opacity:1;fill-rule:nonzero;stroke:#ffffff;stroke-width:1.02810001;stroke-linecap:butt;stroke-linejoin:miter;stroke-miterlimit:1;stroke-dasharray:none;stroke-dashoffset:0;stroke-opacity:1;color-rendering:auto;image-rendering:auto;shape-rendering:auto;text-rendering:auto;enable-background:accumulate"
       d="m 135.43555,157.35547 -4.09961,0.59961 -0.39649,0.71289 5.79883,13.30078 0.0352,0.0664 2.0625,3.29882 -0.17774,0.0176 -0.32226,0.16016 -1.5,1.59961 -0.10156,0.1582 -0.87305,2.13477 -2.91992,3.76562 -2.07618,0.1836 -0.40625,0.26367 -2.19921,4 -0.0645,0.24804 v 3.88672 l -0.65039,1.39649 0.0605,0.5332 2.90039,3.70117 0.13867,0.12305 11.30078,6.80078 0.30469,0.0703 2.5,-0.1914 4.00391,1.26953 0.0254,-0.0117 0.004,0.0137 2.70118,2.20117 0.14648,0.0879 4.04687,1.47657 3.04102,2.0664 0.30859,0.0879 2.76954,-0.0957 3.74218,1.91992 2.9668,2.20703 2.54687,4.79102 0.16211,0.18359 10.69727,7.5 0.10351,0.0527 8.23047,3.33593 1.41797,2.53907 0.36133,0.25976 4.30273,0.70117 0.37696,-0.0898 2.59961,-1.80078 0.20508,-0.30274 2.40039,-10.5039 v -0.23633 l -1.29883,-5.10156 -0.0977,-0.19141 -1.93359,-2.51758 -1.2168,-4.29492 1.81641,-3.0918 2.91406,-0.15624 3.57227,1.93164 0.2832,0.0605 3.92969,-0.29492 3.42968,0.68555 0.54883,-0.75781 -2.89844,-5.1211 0.36719,-1.46875 2.96094,-0.44726 0.13477,-0.041 6,-2.69922 0.11132,-0.86914 -3.43554,-2.76758 -0.37696,-3.29101 -0.0449,-0.15821 -2.09961,-4.5 -0.19726,-0.2207 -2.14258,-1.31836 1.51953,-2.23828 2.87109,-1.33984 0.16407,-0.11914 2,-2.20118 0.10546,-0.50976 -1.79882,-5.30078 -0.42383,-0.34571 -3.08594,-0.38476 -4.50391,-2.83985 -0.10351,-0.0488 -5.09961,-1.80079 -0.31445,-0.008 -6,1.74219 -1.91797,-1.00391 -0.41406,-0.0293 -2.06836,0.75195 -3.06055,-0.57227 -0.10547,-0.0117 -5.13086,0.0996 -3.93359,-0.98438 -0.125,-0.0156 h -9.11524 l -0.40234,-0.33399 -0.30664,-0.35547 -14.14063,-2.0918 -3.14258,-1.27734 -0.19335,-0.0391 h -5.37305 L 135.75,157.4082 Z"
       transform="matrix(0.26458333,0,0,0.26458333,44.11321,58.742709)"
       id="path5943"
       inkscape:connector-curvature="0" />
  </g>
  <style
     id="style5541"
     type="text/css">
	.st0{fill:#E0E0E0;stroke:#FFFFFF;stroke-width:1.0281;stroke-miterlimit:1;}
</style>
</svg>
